<?xml version="1.0" encoding="UTF-8" standalone="no"?>
<svg
   width="24"
   height="24"
   viewBox="0 0 24 24"
   fill="none"
   version="1.1"
   id="svg3"
   sodipodi:docname="icon.svg"
   inkscape:version="1.4.4 (dcaf3e7, 2026-05-05)"
   xmlns:inkscape="http://www.inkscape.org/namespaces/inkscape"
   xmlns:sodipodi="http://sodipodi.sourceforge.net/DTD/sodipodi-0.dtd"
   xmlns="http://www.w3.org/2000/svg"
   xmlns:svg="http://www.w3.org/2000/svg">
  <defs
     id="defs3" />
  <sodipodi:namedview
     id="namedview3"
     pagecolor="#ffffff"
     bordercolor="#000000"
     borderopacity="0.25"
     inkscape:showpageshadow="2"
     inkscape:pageopacity="0.0"
     inkscape:pagecheckerboard="0"
     inkscape:deskcolor="#d1d1d1"
     inkscape:zoom="48.875"
     inkscape:cx="12"
     inkscape:cy="12.01023"
     inkscape:window-width="3822"
     inkscape:window-height="2063"
     inkscape:window-x="-2"
     inkscape:window-y="43"
     inkscape:window-maximized="0"
     inkscape:current-layer="svg3" />
  <path
     d="m 3.09665,5.68258 c -0.3515,0 -0.60934,-0.2168 -0.60934,-0.5742 0,-0.3516 0.25784,-0.5683 0.60934,-0.5683 h 2.8067 c 0.3515,0 0.6152,0.2167 0.6152,0.5683 0,0.3574 -0.2637,0.5742 -0.6152,0.5742 z"
     fill="currentColor"
     id="path1" />
  <path
     opacity="0.5"
     d="m 20.767242,6.7015075 c 1.412759,1.577764 -0.25841,5.2766475 -0.434899,6.5884305 -0.176488,1.311784 2.003037,5.930572 0.913026,7.104593 -1.090011,1.174021 -3.621638,0.292499 -4.601314,0.546012 -0.979677,0.253513 -2.267301,2.596817 -3.835891,2.481785 -1.56859,-0.115032 -3.5996702,-5.167607 -4.3340611,-6.33302 -0.7343909,-1.165414 -5.081017,-5.402315 -3.369017,-8.3676154 1.712,-2.9653002 7.1795591,-1.7882841 8.7474801,-1.7951362 1.567922,-0.00685 5.501918,-1.8028129 6.914676,-0.2250489 z"
     fill="currentColor"
     id="path2"
     sodipodi:nodetypes="zzzzzzzzz"
     style="opacity:0.3" />
  <circle
     cx="13.7852"
     cy="13.4688"
     r="8"
     stroke="currentColor"
     id="circle2" />
  <path
     d="m 11.80371,15.15138 c -0.35742,0 -0.58008,-0.25196 -0.58008,-0.61524 V 12.61427 H 9.40137 c -0.35743,0 -0.60352,-0.2168 -0.60352,-0.56836 0,-0.35157 0.24609,-0.57422 0.60352,-0.57422 h 1.82226 V 9.54395 c 0,-0.36328 0.22266,-0.61523 0.58008,-0.61523 0.35156,0 0.57422,0.25195 0.57422,0.61523 v 1.92774 h 1.8164 c 0.35743,0 0.60938,0.22265 0.60938,0.57422 0,0.35156 -0.25195,0.56836 -0.60938,0.56836 h -1.8164 v 1.92187 c 0,0.36328 -0.22266,0.61524 -0.57422,0.61524 z"
     fill="currentColor"
     id="path3" />
</svg>
